The.Ides.of.March.2011.DVDScr.XVID.AC3.HQ.Hive-CM8



Thx Hive

CM8 Doing It Right The First Time 


Source: DVDScr P2P
thx

Encode:
Dvdscreener was very nice also came along with 5.1 audio which is really great
just that "for your consideration" marking pops up every 15 mins makes it a bit
less perfect, since that msg is only half in the video i cropped the 10 lines,
dont see the need for blurring or else, its not that big of a deal, and not that
type of movie where you could ever miss it.
fixed the ar and the aspect, added brightness, sharpness, rgb and denoise.
Now that you dont see that marking it looks like a dvdrip.
got very nice
enjoy

Video: 720x288 @bitrate 1600 2pass
Audio: English AC3 5.1 @448
Sample: Yes, included

 
http://www.imdb.com/title/tt1124035/


General
Complete name                  : The.Ides.of.March.2011.DVDScr.XVID.AC3.HQ.Hive-CM8.avi
Format                         : AVI
Format/Info                    : Audio Video Interleave
File size                      : 1.45 GiB
Duration                       : 1h 41mn
Overall bit rate               : 2 057 Kbps
Writing application            : Nandub v1.0rc2
Writing library                : Nandub build 1853/release

Video
ID                             : 0
Format                         : MPEG-4 Visual
Format profile                 : Advanced Simple@L5
Format settings, BVOP          : 2
Format settings, QPel          : Yes
Format settings, GMC           : No warppoints
Format settings, Matrix        : Default (H.263)
Muxing mode                    : Packed bitstream
Codec ID                       : XVID
Codec ID/Hint                  : XviD
Duration                       : 1h 41mn
Bit rate                       : 1 600 Kbps
Width                          : 720 pixels
Height                         : 288 pixels
Display aspect ratio           : 2.500
Frame rate                     : 23.976 fps
Color space                    : YUV
Chroma subsampling             : 4:2:0
Bit depth                      : 8 bits
Scan type                      : Progressive
Compression mode               : Lossy
Bits/(Pixel*Frame)             : 0.322
Stream size                    : 1.13 GiB (78%)
Writing library                : XviD 1.2.1 (UTC 2008-12-04)

Audio
ID                             : 1
Format                         : AC-3
Format/Info                    : Audio Coding 3
Mode extension                 : CM (complete main)
Codec ID                       : 2000
Duration                       : 1h 41mn
Bit rate mode                  : Constant
Bit rate                       : 448 Kbps
Channel(s)                     : 6 channels
Channel positions              : Front: L C R, Side: L R, LFE
Sampling rate                  : 48.0 KHz
Bit depth                      : 16 bits
Compression mode               : Lossy
Stream size                    : 324 MiB (22%)
Alignment                      : Split accross interleaves
Interleave, duration           : 42 ms (1.00 video frame)
Interleave, preload duration   : 500 ms

 
http://img708.imageshack.us/img708/3730/38803845.png 
http://img831.imageshack.us/img831/2561/idid.png 
http://img684.imageshack.us/img684/3822/iiddid.png 
http://img855.imageshack.us/img855/300/iiddiidd.png 
http://img832.imageshack.us/img832/5708/iiddiididd.png 
http://img831.imageshack.us/img831/3595/iiddiidididd.png